<svg xmlns="http://www.w3.org/2000/svg" xmlns:xlink="http://www.w3.org/1999/xlink" width="6912" zoomAndPan="magnify" viewBox="0 0 5184 2592.000001" height="3456" preserveAspectRatio="xMidYMid meet" version="1.0"><defs><g/></defs><g fill="#ffffff" fill-opacity="1"><g transform="translate(260.099641, 1506.437055)"><g><path d="M 397.3125 0 L 298.84375 0 L 134.171875 -249.328125 L 134.171875 0 L 35.703125 0 L 35.703125 -404.21875 L 134.171875 -404.21875 L 298.84375 -153.734375 L 298.84375 -404.21875 L 397.3125 -404.21875 Z M 397.3125 0 "/></g></g></g><g fill="#ffffff" fill-opacity="1"><g transform="translate(693.106798, 1506.437055)"><g><path d="M 134.171875 -404.21875 L 134.171875 0 L 35.703125 0 L 35.703125 -404.21875 Z M 134.171875 -404.21875 "/></g></g></g><g fill="#ffffff" fill-opacity="1"><g transform="translate(862.970057, 1506.437055)"><g><path d="M 19 -202.6875 C 19 -242.613281 27.632812 -278.21875 44.90625 -309.5 C 62.1875 -340.78125 86.273438 -365.15625 117.171875 -382.625 C 148.078125 -400.09375 183.109375 -408.828125 222.265625 -408.828125 C 270.242188 -408.828125 311.316406 -396.15625 345.484375 -370.8125 C 379.648438 -345.476562 402.492188 -310.929688 414.015625 -267.171875 L 305.75 -267.171875 C 297.695312 -284.066406 286.28125 -296.925781 271.5 -305.75 C 256.71875 -314.582031 239.921875 -319 221.109375 -319 C 190.785156 -319 166.21875 -308.441406 147.40625 -287.328125 C 128.59375 -266.210938 119.1875 -238 119.1875 -202.6875 C 119.1875 -167.375 128.59375 -139.160156 147.40625 -118.046875 C 166.21875 -96.929688 190.785156 -86.375 221.109375 -86.375 C 239.921875 -86.375 256.71875 -90.785156 271.5 -99.609375 C 286.28125 -108.441406 297.695312 -121.300781 305.75 -138.1875 L 414.015625 -138.1875 C 402.492188 -94.425781 379.648438 -59.972656 345.484375 -34.828125 C 311.316406 -9.691406 270.242188 2.875 222.265625 2.875 C 183.109375 2.875 148.078125 -5.851562 117.171875 -23.3125 C 86.273438 -40.78125 62.1875 -65.0625 44.90625 -96.15625 C 27.632812 -127.25 19 -162.757812 19 -202.6875 Z M 19 -202.6875 "/></g></g></g><g fill="#ffffff" fill-opacity="1"><g transform="translate(1301.735255, 1506.437055)"><g><path d="M 385.796875 -404.21875 L 385.796875 0 L 287.328125 0 L 287.328125 -166.40625 L 134.171875 -166.40625 L 134.171875 0 L 35.703125 0 L 35.703125 -404.21875 L 134.171875 -404.21875 L 134.171875 -245.875 L 287.328125 -245.875 L 287.328125 -404.21875 Z M 385.796875 -404.21875 "/></g></g></g><g fill="#ffffff" fill-opacity="1"><g transform="translate(1722.650536, 1506.437055)"><g><path d="M 226.875 4.03125 C 188.863281 4.03125 154.023438 -4.796875 122.359375 -22.453125 C 90.691406 -40.109375 65.546875 -64.769531 46.921875 -96.4375 C 28.304688 -128.113281 19 -163.722656 19 -203.265625 C 19 -242.804688 28.304688 -278.3125 46.921875 -309.78125 C 65.546875 -341.257812 90.691406 -365.828125 122.359375 -383.484375 C 154.023438 -401.148438 188.863281 -409.984375 226.875 -409.984375 C 264.875 -409.984375 299.707031 -401.148438 331.375 -383.484375 C 363.050781 -365.828125 388.003906 -341.257812 406.234375 -309.78125 C 424.472656 -278.3125 433.59375 -242.804688 433.59375 -203.265625 C 433.59375 -163.722656 424.378906 -128.113281 405.953125 -96.4375 C 387.523438 -64.769531 362.570312 -40.109375 331.09375 -22.453125 C 299.613281 -4.796875 264.875 4.03125 226.875 4.03125 Z M 226.875 -85.796875 C 259.113281 -85.796875 284.925781 -96.539062 304.3125 -118.03125 C 323.695312 -139.53125 333.390625 -167.941406 333.390625 -203.265625 C 333.390625 -238.960938 323.695312 -267.460938 304.3125 -288.765625 C 284.925781 -310.078125 259.113281 -320.734375 226.875 -320.734375 C 194.238281 -320.734375 168.226562 -310.175781 148.84375 -289.0625 C 129.457031 -267.945312 119.765625 -239.347656 119.765625 -203.265625 C 119.765625 -167.566406 129.457031 -139.0625 148.84375 -117.75 C 168.226562 -96.445312 194.238281 -85.796875 226.875 -85.796875 Z M 226.875 -85.796875 "/></g></g></g><g fill="#ffffff" fill-opacity="1"><g transform="translate(2175.235092, 1506.437055)"><g><path d="M 134.171875 -76 L 263.140625 -76 L 263.140625 0 L 35.703125 0 L 35.703125 -404.21875 L 134.171875 -404.21875 Z M 134.171875 -76 "/></g></g></g><g fill="#ffffff" fill-opacity="1"><g transform="translate(2449.89524, 1506.437055)"><g><path d="M 287.328125 -71.40625 L 136.46875 -71.40625 L 112.28125 0 L 9.21875 0 L 155.46875 -404.21875 L 269.484375 -404.21875 L 415.734375 0 L 311.515625 0 Z M 262 -147.40625 L 211.90625 -295.390625 L 162.375 -147.40625 Z M 262 -147.40625 "/></g></g></g><g fill="#ffffff" fill-opacity="1"><g transform="translate(2874.2654, 1506.437055)"><g><path d="M 134.171875 -404.21875 L 134.171875 0 L 35.703125 0 L 35.703125 -404.21875 Z M 134.171875 -404.21875 "/></g></g></g><g fill="#ffffff" fill-opacity="1"><g transform="translate(3044.128704, 1506.437055)"><g><path d="M 58.15625 -404.21875 L 158.921875 -404.21875 L 94.4375 -249.90625 L 28.21875 -249.90625 Z M 58.15625 -404.21875 "/></g></g></g><g fill="#ffffff" fill-opacity="1"><g transform="translate(3224.932332, 1506.437055)"><g><path d="M 181.953125 4.03125 C 152.398438 4.03125 125.914062 -0.765625 102.5 -10.359375 C 79.082031 -19.960938 60.363281 -34.164062 46.34375 -52.96875 C 32.332031 -71.78125 24.945312 -94.429688 24.1875 -120.921875 L 128.984375 -120.921875 C 130.515625 -105.953125 135.691406 -94.53125 144.515625 -86.65625 C 153.347656 -78.789062 164.867188 -74.859375 179.078125 -74.859375 C 193.660156 -74.859375 205.175781 -78.21875 213.625 -84.9375 C 222.070312 -91.65625 226.296875 -100.960938 226.296875 -112.859375 C 226.296875 -122.835938 222.9375 -131.085938 216.21875 -137.609375 C 209.5 -144.140625 201.242188 -149.515625 191.453125 -153.734375 C 181.671875 -157.960938 167.757812 -162.765625 149.71875 -168.140625 C 123.613281 -176.203125 102.304688 -184.257812 85.796875 -192.3125 C 69.285156 -200.375 55.078125 -212.273438 43.171875 -228.015625 C 31.273438 -243.753906 25.328125 -264.296875 25.328125 -289.640625 C 25.328125 -327.253906 38.953125 -356.710938 66.203125 -378.015625 C 93.460938 -399.328125 128.976562 -409.984375 172.75 -409.984375 C 217.269531 -409.984375 253.15625 -399.328125 280.40625 -378.015625 C 307.664062 -356.710938 322.257812 -327.0625 324.1875 -289.0625 L 217.65625 -289.0625 C 216.882812 -302.113281 212.082031 -312.378906 203.25 -319.859375 C 194.425781 -327.347656 183.101562 -331.09375 169.28125 -331.09375 C 157.382812 -331.09375 147.789062 -327.925781 140.5 -321.59375 C 133.207031 -315.257812 129.5625 -306.140625 129.5625 -294.234375 C 129.5625 -281.179688 135.703125 -271.007812 147.984375 -263.71875 C 160.265625 -256.425781 179.457031 -248.554688 205.5625 -240.109375 C 231.664062 -231.285156 252.875 -222.84375 269.1875 -214.78125 C 285.507812 -206.71875 299.617188 -195.007812 311.515625 -179.65625 C 323.410156 -164.300781 329.359375 -144.53125 329.359375 -120.34375 C 329.359375 -97.3125 323.503906 -76.390625 311.796875 -57.578125 C 300.085938 -38.765625 283.101562 -23.789062 260.84375 -12.65625 C 238.582031 -1.53125 212.285156 4.03125 181.953125 4.03125 Z M 181.953125 4.03125 "/></g></g></g><g fill="#ffffff" fill-opacity="1"><g transform="translate(3725.220214, 1343.453418)"><g><path d="M 96.96875 3.234375 C 85.550781 3.234375 75.046875 1.726562 65.453125 -1.28125 C 55.867188 -4.300781 47.628906 -8.664062 40.734375 -14.375 C 33.835938 -20.09375 28.394531 -26.9375 24.40625 -34.90625 C 20.414062 -42.882812 18.207031 -51.828125 17.78125 -61.734375 L 59.15625 -61.734375 C 59.582031 -52.472656 63.296875 -45.203125 70.296875 -39.921875 C 77.304688 -34.640625 86.519531 -32 97.9375 -32 C 109.789062 -32 119.003906 -34.691406 125.578125 -40.078125 C 132.148438 -45.472656 135.4375 -52.691406 135.4375 -61.734375 C 135.4375 -69.710938 132.957031 -76.609375 128 -82.421875 C 123.050781 -88.242188 116.050781 -92.554688 107 -95.359375 L 82.421875 -102.46875 C 42.335938 -113.457031 22.296875 -136.515625 22.296875 -171.640625 C 22.296875 -181.335938 24.070312 -190.171875 27.625 -198.140625 C 31.1875 -206.117188 36.195312 -212.960938 42.65625 -218.671875 C 49.125 -224.390625 56.992188 -228.753906 66.265625 -231.765625 C 75.535156 -234.785156 85.988281 -236.296875 97.625 -236.296875 C 119.601562 -236.296875 137.328125 -230.640625 150.796875 -219.328125 C 164.265625 -208.015625 171.535156 -192.441406 172.609375 -172.609375 L 131.5625 -172.609375 C 131.132812 -181.453125 127.6875 -188.347656 121.21875 -193.296875 C 114.75 -198.253906 106.5625 -200.734375 96.65625 -200.734375 C 86.09375 -200.734375 77.789062 -198.253906 71.75 -193.296875 C 65.71875 -188.347656 62.703125 -181.773438 62.703125 -173.578125 C 62.703125 -158.066406 72.078125 -147.617188 90.828125 -142.234375 L 116.6875 -135.125 C 136.082031 -129.726562 150.84375 -120.941406 160.96875 -108.765625 C 171.101562 -96.597656 176.171875 -81.570312 176.171875 -63.6875 C 176.171875 -53.550781 174.285156 -44.390625 170.515625 -36.203125 C 166.742188 -28.015625 161.410156 -21.007812 154.515625 -15.1875 C 147.617188 -9.375 139.320312 -4.847656 129.625 -1.609375 C 119.925781 1.617188 109.039062 3.234375 96.96875 3.234375 Z M 96.96875 3.234375 "/></g></g></g><g fill="#ffffff" fill-opacity="1"><g transform="translate(3919.168073, 1343.453418)"><g><path d="M 104.40625 -232.734375 C 116.039062 -232.734375 126.65625 -231.0625 136.25 -227.71875 C 145.84375 -224.382812 153.976562 -219.644531 160.65625 -213.5 C 167.332031 -207.363281 172.503906 -199.929688 176.171875 -191.203125 C 179.835938 -182.472656 181.671875 -172.722656 181.671875 -161.953125 C 181.671875 -151.390625 179.835938 -141.742188 176.171875 -133.015625 C 172.503906 -124.285156 167.273438 -116.847656 160.484375 -110.703125 C 153.703125 -104.566406 145.566406 -99.828125 136.078125 -96.484375 C 126.597656 -93.148438 116.039062 -91.484375 104.40625 -91.484375 L 64.328125 -91.484375 L 64.328125 0 L 23.921875 0 L 23.921875 -232.734375 Z M 64.328125 -198.46875 L 64.328125 -125.75 L 104.40625 -125.75 C 115.613281 -125.75 124.445312 -129.035156 130.90625 -135.609375 C 137.375 -142.179688 140.609375 -150.960938 140.609375 -161.953125 C 140.609375 -172.941406 137.375 -181.773438 130.90625 -188.453125 C 124.445312 -195.128906 115.613281 -198.46875 104.40625 -198.46875 Z M 64.328125 -198.46875 "/></g></g></g><g fill="#ffffff" fill-opacity="1"><g transform="translate(4113.115932, 1343.453418)"><g><path d="M 7.765625 0 L 70.46875 -232.734375 L 125.09375 -232.734375 L 186.1875 0 L 144.5 0 L 130.59375 -58.515625 L 63.03125 -58.515625 L 49.140625 0 Z M 70.796875 -90.515625 L 122.828125 -90.515625 L 103.109375 -173.578125 C 102.253906 -177.460938 101.445312 -181.34375 100.6875 -185.21875 C 99.9375 -189.101562 99.347656 -192.550781 98.921875 -195.5625 C 98.484375 -199.007812 98.050781 -202.457031 97.625 -205.90625 L 96 -205.90625 C 95.570312 -202.457031 95.144531 -199.007812 94.71875 -195.5625 C 94.28125 -192.550781 93.738281 -189.101562 93.09375 -185.21875 C 92.445312 -181.34375 91.585938 -177.460938 90.515625 -173.578125 Z M 70.796875 -90.515625 "/></g></g></g><g fill="#ffffff" fill-opacity="1"><g transform="translate(4307.063792, 1343.453418)"><g><path d="M 98.59375 -235.96875 C 110.007812 -235.96875 120.296875 -234.351562 129.453125 -231.125 C 138.617188 -227.894531 146.539062 -223.316406 153.21875 -217.390625 C 159.894531 -211.460938 165.171875 -204.238281 169.046875 -195.71875 C 172.929688 -187.207031 175.09375 -177.78125 175.53125 -167.4375 L 135.125 -167.4375 C 134.6875 -177.570312 131.179688 -185.492188 124.609375 -191.203125 C 118.035156 -196.910156 109.363281 -199.765625 98.59375 -199.765625 C 87.382812 -199.765625 78.492188 -196.640625 71.921875 -190.390625 C 65.347656 -184.140625 62.0625 -175.519531 62.0625 -164.53125 L 62.0625 -68.203125 C 62.0625 -57.210938 65.238281 -48.59375 71.59375 -42.34375 C 77.957031 -36.09375 86.957031 -32.96875 98.59375 -32.96875 C 109.363281 -32.96875 118.035156 -35.929688 124.609375 -41.859375 C 131.179688 -47.785156 134.6875 -55.707031 135.125 -65.625 L 175.53125 -65.625 C 174.445312 -44.5 167.0625 -27.738281 153.375 -15.34375 C 139.695312 -2.957031 121.4375 3.234375 98.59375 3.234375 C 86.957031 3.234375 76.394531 1.566406 66.90625 -1.765625 C 57.425781 -5.109375 49.34375 -9.90625 42.65625 -16.15625 C 35.976562 -22.40625 30.804688 -29.945312 27.140625 -38.78125 C 23.484375 -47.625 21.65625 -57.429688 21.65625 -68.203125 L 21.65625 -164.53125 C 21.65625 -175.3125 23.484375 -185.117188 27.140625 -193.953125 C 30.804688 -202.785156 35.976562 -210.328125 42.65625 -216.578125 C 49.34375 -222.828125 57.425781 -227.617188 66.90625 -230.953125 C 76.394531 -234.296875 86.957031 -235.96875 98.59375 -235.96875 Z M 98.59375 -235.96875 "/></g></g></g><g fill="#ffffff" fill-opacity="1"><g transform="translate(4501.011651, 1343.453418)"><g><path d="M 27.796875 0 L 27.796875 -232.734375 L 171 -232.734375 L 171 -197.1875 L 68.203125 -197.1875 L 68.203125 -137.375 L 159.6875 -137.375 L 159.6875 -101.828125 L 68.203125 -101.828125 L 68.203125 -35.5625 L 171 -35.5625 L 171 0 Z M 27.796875 0 "/></g></g></g><g fill="#ffffff" fill-opacity="1"><g transform="translate(4694.95951, 1343.453418)"><g><path d="M 65.625 -28.453125 C 65.625 -38.148438 68.476562 -45.851562 74.1875 -51.5625 C 79.894531 -57.269531 87.488281 -60.125 96.96875 -60.125 C 106.664062 -60.125 114.316406 -57.269531 119.921875 -51.5625 C 125.523438 -45.851562 128.328125 -38.148438 128.328125 -28.453125 C 128.328125 -18.960938 125.523438 -11.304688 119.921875 -5.484375 C 114.316406 0.328125 106.664062 3.234375 96.96875 3.234375 C 87.488281 3.234375 79.894531 0.328125 74.1875 -5.484375 C 68.476562 -11.304688 65.625 -18.960938 65.625 -28.453125 Z M 65.625 -28.453125 "/></g></g></g><g fill="#ffffff" fill-opacity="1"><g transform="translate(3534.768163, 1343.453418)"><g><path d="M 76.9375 -268.296875 L 117.34375 -268.296875 L 117.34375 35.5625 L 76.9375 35.5625 Z M 76.9375 -268.296875 "/></g></g></g></svg>